<svg width="204" height="47" viewBox="0 0 204 47" fill="none" xmlns="http://www.w3.org/2000/svg">
<path d="M-0.000251056 39.3426L13.114 7.07115H0.642606V0.642576H20.6997V6.94258L7.58546 39.214H20.6997V45.6426H-0.000251056V39.3426Z" fill="#AA80FF"/>
<path d="M24.7051 0.642576H43.9908V7.07115H31.7765V18.964H41.4836V25.3926H31.7765V39.214H43.9908V45.6426H24.7051V0.642576ZM48.0588 0.642576H58.5374C62.1803 0.642576 64.8374 1.49972 66.5088 3.21401C68.1803 4.88543 69.016 7.47829 69.016 10.9926V13.7569C69.016 18.4283 67.4731 21.3854 64.3874 22.6283V22.7569C66.1017 23.2711 67.3017 24.3211 67.9874 25.9069C68.716 27.4926 69.0803 29.614 69.0803 32.2711V40.1783C69.0803 41.464 69.1231 42.514 69.2088 43.3283C69.2946 44.0997 69.5088 44.8711 69.8517 45.6426H62.6517C62.3946 44.914 62.2231 44.2283 62.1374 43.5854C62.0517 42.9426 62.0088 41.7854 62.0088 40.114V31.8854C62.0088 29.8283 61.666 28.3926 60.9803 27.5783C60.3374 26.764 59.2017 26.3569 57.5731 26.3569H55.1303V45.6426H48.0588V0.642576ZM57.7017 19.9283C59.116 19.9283 60.166 19.564 60.8517 18.8354C61.5803 18.1069 61.9446 16.8854 61.9446 15.1711V11.6997C61.9446 10.0711 61.6446 8.89258 61.0446 8.16401C60.4874 7.43543 59.5874 7.07115 58.3446 7.07115H55.1303V19.9283H57.7017ZM84.208 46.2854C80.7366 46.2854 78.0794 45.2997 76.2366 43.3283C74.3937 41.3569 73.4723 38.5711 73.4723 34.9711V11.314C73.4723 7.71401 74.3937 4.92829 76.2366 2.95686C78.0794 0.985434 80.7366 -0.000280696 84.208 -0.000280696C87.6794 -0.000280696 90.3366 0.985434 92.1794 2.95686C94.0223 4.92829 94.9437 7.71401 94.9437 11.314V34.9711C94.9437 38.5711 94.0223 41.3569 92.1794 43.3283C90.3366 45.2997 87.6794 46.2854 84.208 46.2854ZM84.208 39.8569C86.6509 39.8569 87.8723 38.3783 87.8723 35.4211V10.864C87.8723 7.90686 86.6509 6.42829 84.208 6.42829C81.7651 6.42829 80.5437 7.90686 80.5437 10.864V35.4211C80.5437 38.3783 81.7651 39.8569 84.208 39.8569ZM115.55 7.07115H108.157V0.642576H130.015V7.07115H122.622V45.6426H115.55V7.07115ZM133.438 0.642576H152.724V7.07115H140.51V18.964H150.217V25.3926H140.51V39.214H152.724V45.6426H133.438V0.642576ZM166.756 46.2854C163.371 46.2854 160.778 45.3211 158.978 43.3926C157.221 41.464 156.342 38.7426 156.342 35.2283V11.0569C156.342 7.54258 157.221 4.82115 158.978 2.89258C160.778 0.964005 163.371 -0.000280696 166.756 -0.000280696C170.142 -0.000280696 172.714 0.964005 174.471 2.89258C176.271 4.82115 177.171 7.54258 177.171 11.0569V15.814H170.485V10.6069C170.485 7.82115 169.306 6.42829 166.949 6.42829C164.592 6.42829 163.414 7.82115 163.414 10.6069V35.7426C163.414 38.4854 164.592 39.8569 166.949 39.8569C169.306 39.8569 170.485 38.4854 170.485 35.7426V28.864H177.171V35.2283C177.171 38.7426 176.271 41.464 174.471 43.3926C172.714 45.3211 170.142 46.2854 166.756 46.2854ZM181.401 0.642576H188.473V18.964H196.059V0.642576H203.13V45.6426H196.059V25.3926H188.473V45.6426H181.401V0.642576Z" fill="white"/>
</svg>
