<svg width="50" height="50" viewBox="0 0 50 50" fill="none" xmlns="http://www.w3.org/2000/svg">
<path d="M24.4252 32.1824C29.025 34.5773 34.5667 34.8955 39.6349 32.5576C45.1863 29.9971 48.8823 24.8442 50 19.0507L45.4578 19.0451C45.4578 19.0477 45.4578 19.0499 45.4578 19.0525C45.4578 20.1645 44.5984 21.066 43.5378 21.066C42.4773 21.066 41.6175 20.1645 41.6175 19.0525C41.6175 19.0483 41.6181 19.0444 41.6181 19.0403L37.0811 19.0348C36.486 25.9353 31.2342 31.5952 24.4252 32.1824ZM37.63 24.2173C37.3524 24.1737 37.1597 23.902 37.2013 23.6111C37.2427 23.3197 37.5015 23.1174 37.778 23.1627H37.7807C38.0585 23.2063 38.2496 23.4777 38.2083 23.7689C38.1704 24.0332 37.9534 24.2228 37.706 24.2228C37.6808 24.2228 37.6554 24.2205 37.63 24.2169M39.7091 24.5627C39.4317 24.519 39.2391 24.2474 39.2802 23.956C39.3218 23.6649 39.5815 23.4626 39.8571 23.5078H39.8598C40.1376 23.5514 40.3287 23.8228 40.2871 24.1142C40.2497 24.3785 40.0325 24.5682 39.7851 24.5682C39.7599 24.5682 39.7345 24.5659 39.7091 24.5622M41.7885 24.9078C41.5108 24.8641 41.3179 24.5925 41.3593 24.3013C41.4009 24.01 41.6599 23.8081 41.9362 23.8529H41.9389C42.2165 23.8965 42.4079 24.1677 42.3665 24.4594C42.3288 24.7234 42.1118 24.9133 41.8642 24.9133C41.839 24.9133 41.8139 24.911 41.7885 24.9071M43.8676 25.2529C43.5897 25.2093 43.3971 24.9376 43.4384 24.6465C43.48 24.3553 43.7399 24.1516 44.0154 24.1983H44.018C44.2956 24.2419 44.487 24.5131 44.4456 24.8045C44.4077 25.0687 44.191 25.2586 43.9433 25.2586C43.9184 25.2586 43.893 25.2564 43.8676 25.2525M45.9465 25.5983C45.6688 25.5544 45.4762 25.283 45.5178 24.9918C45.5594 24.7004 45.8184 24.4972 46.0945 24.5436L46.0973 24.5438C46.3749 24.5875 46.5661 24.8589 46.5247 25.1503C46.4868 25.4143 46.2698 25.6042 46.0224 25.6042C45.9975 25.6042 45.9721 25.6019 45.9465 25.5983Z" fill="#2E998C" style="fill:#2E998C;fill:color(display-p3 0.1804 0.6000 0.5490);fill-opacity:1;"/>
<path d="M23.594 4.52873C23.5962 4.52873 23.5984 4.52873 23.6006 4.53102C24.6093 4.87454 25.1612 6.01093 24.8335 7.06856C24.5057 8.12641 23.4224 8.70528 22.4139 8.36154C22.4102 8.35924 22.4067 8.35854 22.4032 8.35717L20.9962 12.8807C27.07 15.607 30.5797 22.5943 29.0081 29.5669C32.6012 25.7192 34.6024 20.29 34.0485 14.5124C33.4418 8.18404 29.9108 2.90531 25.0027 0.000160217L23.594 4.52917V4.52873ZM29.007 6.3069C28.7557 6.17533 28.6514 5.85409 28.7786 5.59324L28.78 5.59072C28.9054 5.32711 29.2106 5.22011 29.4618 5.35146C29.6897 5.47109 29.795 5.74616 29.7184 5.99277C29.7107 6.0178 29.7011 6.04261 29.6897 6.06649C29.6003 6.25386 29.4199 6.36294 29.2327 6.36294C29.1568 6.36294 29.0795 6.34502 29.007 6.3069ZM28.0511 8.27383C27.7997 8.14249 27.6955 7.82056 27.8227 7.56017L27.8238 7.55742C27.9495 7.29405 28.2547 7.18704 28.5058 7.31861C28.734 7.43801 28.8389 7.71309 28.7624 7.95971C28.7548 7.98473 28.7451 8.00954 28.7335 8.03365C28.6444 8.22102 28.464 8.32984 28.2768 8.32984C28.2008 8.32984 28.1238 8.31195 28.0511 8.27383ZM27.0949 10.241C26.8436 10.1094 26.7405 9.78864 26.8666 9.5271L26.8679 9.52432C26.9934 9.26095 27.2983 9.15397 27.5499 9.28554C27.7778 9.40471 27.8827 9.67979 27.8063 9.92686C27.7986 9.95166 27.789 9.97621 27.7774 10.0005C27.6883 10.1877 27.5077 10.2965 27.3205 10.2965C27.2445 10.2968 27.1674 10.2786 27.0949 10.241ZM26.139 12.2079C25.8875 12.0763 25.7846 11.7551 25.9107 11.494L25.912 11.4913C26.0372 11.2279 26.3424 11.1211 26.594 11.2522C26.8219 11.3716 26.927 11.6467 26.8504 11.8935C26.8425 11.9188 26.8331 11.9434 26.8215 11.9675C26.7324 12.1548 26.5517 12.2637 26.3645 12.2637C26.2886 12.2637 26.2115 12.2458 26.139 12.2079ZM25.1831 14.1746C24.9315 14.0435 24.8282 13.7229 24.9548 13.4609L24.9561 13.4584C25.0813 13.1948 25.3865 13.0878 25.6379 13.2191C25.8658 13.3388 25.9711 13.6136 25.8947 13.8605C25.8866 13.8855 25.877 13.9103 25.8656 13.9344C25.7765 14.1218 25.5958 14.2306 25.4088 14.2306C25.3327 14.2306 25.2556 14.2125 25.1831 14.1746Z" fill="#2E998C" style="fill:#2E998C;fill:color(display-p3 0.1804 0.6000 0.5490);fill-opacity:1;"/>
<path d="M0 19.0496L3.67194 21.8542C3.67325 21.8519 3.67435 21.8503 3.67566 21.8482C4.299 20.9483 5.49992 20.749 6.35797 21.4025C7.21602 22.0565 7.40606 23.3159 6.7825 24.2156C6.78053 24.2188 6.7779 24.2215 6.7755 24.2248L10.4428 27.0259C14.792 21.8103 22.2129 20.4689 28.0505 24.1912C25.6716 19.4181 21.3665 15.7444 15.9557 14.5116C14.6727 14.2193 13.3912 14.0788 12.1298 14.0788C7.56458 14.0786 3.25288 15.9171 0 19.0496ZM6.23952 17.0117L6.23755 17.0094C6.03743 16.803 6.03459 16.4655 6.23142 16.2554C6.41008 16.065 6.69208 16.0452 6.89242 16.1977C6.91256 16.2131 6.93226 16.2303 6.95022 16.2494C7.15055 16.4558 7.15406 16.7943 6.95744 17.0044C6.85739 17.1107 6.72492 17.1647 6.5929 17.1647C6.4646 17.1647 6.33673 17.1141 6.23952 17.0117ZM7.72791 18.5729L7.72594 18.5706C7.5256 18.3639 7.52298 18.0267 7.71981 17.8163C7.89847 17.6262 8.18048 17.6062 8.38059 17.7587C8.40096 17.7743 8.42022 17.7915 8.43861 17.8104C8.63873 18.017 8.64245 18.3555 8.44562 18.5653C8.346 18.6719 8.21332 18.7256 8.08129 18.7256C7.95277 18.7256 7.8249 18.6751 7.72791 18.5729ZM9.21609 20.1341L9.21412 20.1318C9.01378 19.9254 9.01137 19.5878 9.20799 19.3777C9.38665 19.1871 9.66865 19.1674 9.86877 19.3201C9.88913 19.3352 9.90861 19.3527 9.92678 19.3717C10.1269 19.5782 10.1306 19.9166 9.93379 20.1265C9.83417 20.233 9.70215 20.2866 9.57034 20.2866C9.44204 20.2866 9.31374 20.236 9.21609 20.1341ZM10.7043 21.6953L10.7023 21.693C10.5022 21.4863 10.4995 21.149 10.6962 20.9387C10.875 20.7483 11.157 20.7286 11.3572 20.881C11.3775 20.8966 11.397 20.9139 11.4152 20.9327C11.6153 21.1391 11.619 21.4778 11.4222 21.6877C11.3226 21.7942 11.1903 21.8475 11.0585 21.8475C10.9302 21.8475 10.8019 21.797 10.7043 21.6953ZM12.1927 23.2562L12.1907 23.2539C11.9906 23.0475 11.9877 22.71 12.1846 22.4999C12.3632 22.3093 12.6452 22.2895 12.8456 22.4422C12.8657 22.4574 12.8854 22.4748 12.9034 22.4939C13.1037 22.7003 13.1072 23.0388 12.9106 23.2486C12.8107 23.3552 12.6787 23.4089 12.5469 23.4089C12.4186 23.4089 12.2905 23.3584 12.1927 23.2562Z" fill="#2E998C" style="fill:#2E998C;fill:color(display-p3 0.1804 0.6000 0.5490);fill-opacity:1;"/>
<path d="M10.3636 32.5585C7.30775 38.0524 7.20572 44.4992 9.54822 49.8755L13.2261 47.0796C13.2248 47.0773 13.2232 47.076 13.2221 47.0741C12.5986 46.1742 12.7886 44.915 13.6467 44.2611C14.5047 43.6076 15.7056 43.8069 16.329 44.7068C16.3312 44.71 16.3329 44.7132 16.3351 44.7166L20.0088 41.9244C16.6228 35.9748 17.6994 28.1583 22.879 23.486C17.8154 24.3841 13.1536 27.5427 10.3636 32.5585ZM16.4435 38.7888C16.3257 38.5518 16.3949 38.2643 16.5952 38.1118C16.6154 38.0962 16.637 38.0822 16.66 38.0701C16.909 37.9341 17.2172 38.0352 17.3469 38.2965C17.4767 38.5575 17.3806 38.8806 17.1316 39.0145L17.129 39.0168C17.0541 39.0576 16.974 39.0769 16.895 39.0769C16.7115 39.0772 16.5341 38.9725 16.4435 38.7897M14.5678 39.7917C14.45 39.5545 14.5192 39.2673 14.7195 39.1148C14.7397 39.0992 14.7613 39.0852 14.7843 39.0728C15.0333 38.9371 15.3415 39.0381 15.4711 39.2992C15.6008 39.5605 15.5042 39.8841 15.2559 40.0172L15.2533 40.0195C15.1782 40.0604 15.0981 40.0799 15.019 40.0799C14.8355 40.0799 14.6584 39.9754 14.5678 39.7927M12.6918 40.7945C12.5743 40.5575 12.6435 40.2703 12.8438 40.1176C12.8639 40.1024 12.8856 40.088 12.9086 40.0758C13.1575 39.9401 13.4658 40.0409 13.5952 40.3022C13.7251 40.5633 13.6287 40.8863 13.38 41.0202L13.3776 41.0225C13.3027 41.0631 13.2226 41.0827 13.1435 41.0827C12.9598 41.0827 12.7825 40.978 12.6918 40.7952M10.8161 41.7972C10.6983 41.56 10.7675 41.2728 10.9679 41.1201C10.988 41.1049 11.0097 41.0907 11.0327 41.0785C11.2816 40.9424 11.5899 41.0434 11.7195 41.3047C11.8491 41.566 11.753 41.8907 11.5041 42.023L11.5017 42.0253C11.4268 42.0661 11.3466 42.0854 11.2676 42.0854C11.0839 42.0854 10.9068 41.9807 10.8161 41.7982M8.94021 42.8002C8.82264 42.5633 8.89183 42.2758 9.09194 42.1231C9.1123 42.1077 9.13398 42.0937 9.15697 42.0813C9.40591 41.9454 9.71418 42.0466 9.84358 42.3075C9.9732 42.569 9.87752 42.8932 9.62836 43.0259H9.62595C9.55085 43.0668 9.47072 43.0863 9.39168 43.0863C9.2082 43.0863 9.03086 42.9816 8.94021 42.7991" fill="#2E998C" style="fill:#2E998C;fill:color(display-p3 0.1804 0.6000 0.5490);fill-opacity:1;"/>
<path d="M25.0007 43.7118C29.0383 48.4578 34.8531 50.5514 40.4526 49.8763L39.0538 45.3437C39.0516 45.3437 39.0496 45.346 39.0474 45.3464C38.0387 45.6902 36.9554 45.1113 36.6278 44.0534C36.3001 42.9958 36.852 41.8594 37.8607 41.5159C37.8642 41.5136 37.868 41.5136 37.8715 41.5127L36.4746 36.986C30.0328 38.5244 23.2774 35.0354 20.6411 28.4253C19.8903 33.7532 21.3143 39.3791 25.0007 43.7118ZM31.9623 39.2124C31.9547 39.1873 31.9485 39.1614 31.9444 39.135C31.8984 38.8443 32.0852 38.5683 32.3619 38.5198C32.6389 38.4709 32.9023 38.6665 32.9467 38.9563L32.9471 38.9593C32.9933 39.2496 32.8064 39.5244 32.5294 39.5731C32.5012 39.5779 32.4731 39.5804 32.4453 39.5804C32.2262 39.5804 32.0302 39.4314 31.9623 39.2124ZM32.2914 41.3931C32.2837 41.3678 32.2776 41.3421 32.2734 41.3154C32.2273 41.025 32.414 40.749 32.6908 40.7001C32.9682 40.6516 33.2313 40.8482 33.2758 41.137L33.276 41.14C33.3224 41.4302 33.1354 41.7049 32.8585 41.7538C32.8302 41.7586 32.8022 41.7609 32.7744 41.7609C32.5555 41.7609 32.3593 41.6121 32.2914 41.3931ZM32.6205 43.5735C32.6126 43.5485 32.6065 43.5228 32.6025 43.4961C32.5563 43.2057 32.7431 42.9294 33.0198 42.8808C33.297 42.8323 33.56 43.0282 33.6049 43.3175L33.6051 43.3205C33.6515 43.611 33.4645 43.8856 33.1873 43.9343C33.1591 43.9391 33.1311 43.9416 33.1033 43.9416C32.8843 43.9416 32.6884 43.7926 32.6205 43.5735ZM32.9493 45.7542C32.9415 45.7292 32.9353 45.7033 32.9314 45.6766C32.8852 45.3861 33.0719 45.1101 33.3489 45.0614C33.6259 45.013 33.8906 45.2093 33.9335 45.4982L33.9342 45.501C33.9801 45.7917 33.7934 46.0663 33.5164 46.1147C33.4879 46.1198 33.4599 46.1221 33.4321 46.1221C33.2132 46.1221 33.0172 45.9733 32.9493 45.7542ZM33.2782 47.9349C33.2705 47.9099 33.2644 47.8837 33.2605 47.8571C33.2143 47.5668 33.401 47.2906 33.678 47.2419C33.955 47.1935 34.2194 47.3893 34.2626 47.6789L34.2632 47.6816C34.3092 47.9721 34.1222 48.2467 33.8455 48.2954C33.8172 48.3005 33.789 48.3028 33.7614 48.3028C33.5422 48.3028 33.3461 48.154 33.2782 47.9349Z" fill="#2E998C" style="fill:#2E998C;fill:color(display-p3 0.1804 0.6000 0.5490);fill-opacity:1;"/>
</svg>
