<svg width="142" height="200" viewBox="0 0 142 200" fill="none" xmlns="http://www.w3.org/2000/svg">
<g opacity="0.24">
<path d="M8.6665 133.333H75.3332V200C38.5464 199.85 8.6665 170.12 8.6665 133.333Z" fill="white"/>
<path d="M-57.8501 199.85H8.81657V133.183C-28.1204 133.333 -57.8501 163.063 -57.8501 199.85Z" fill="white"/>
<path d="M8.66667 66.6667V133.333H-58C-57.8498 96.5466 -28.1201 66.6667 8.66667 66.6667Z" fill="white"/>
<path d="M-57.8501 0V66.6667H8.81657C8.66642 29.8799 -21.0633 0 -57.8501 0Z" fill="white"/>
<path d="M75.3332 66.6667H8.6665V0C45.4533 0 75.3332 29.8799 75.3332 66.6667Z" fill="white"/>
<path d="M142 0H75.3335V66.6667C112.12 66.6667 142 36.7868 142 0Z" fill="white"/>
<path d="M75.3335 133.333V66.6667H142C142 103.454 112.12 133.333 75.3335 133.333Z" fill="white"/>
<path d="M142 199.85V133.183H75.3335C75.3335 170.12 105.213 199.85 142 199.85Z" fill="white"/>
</g>
</svg>
