<svg width="1440" height="1244" viewBox="0 0 1440 1244" fill="none" xmlns="http://www.w3.org/2000/svg">
<g clip-path="url(#clip0_59_1001)">
<path d="M0 64C0 33.8301 0 18.7452 9.37258 9.37258C18.7452 0 33.8301 0 64 0H1376C1406.17 0 1421.25 0 1430.63 9.37258C1440 18.7452 1440 33.8301 1440 64V1180C1440 1210.17 1440 1225.25 1430.63 1234.63C1421.25 1244 1406.17 1244 1376 1244H64C33.8301 1244 18.7452 1244 9.37258 1234.63C0 1225.25 0 1210.17 0 1180V64Z" fill="#010518"/>
<g filter="url(#filter0_f_59_1001)">
<ellipse cx="125.559" cy="1317.58" rx="659.872" ry="437.001" fill="#8571F4" fill-opacity="0.62"/>
</g>
<g filter="url(#filter1_f_59_1001)">
<ellipse cx="602.665" cy="23.1067" rx="332.168" ry="201.031" fill="#8571F4" fill-opacity="0.29"/>
</g>
</g>
<defs>
<filter id="filter0_f_59_1001" x="-1541.81" y="-126.921" width="3334.74" height="2889" filterUnits="userSpaceOnUse" color-interpolation-filters="sRGB">
<feFlood flood-opacity="0" result="BackgroundImageFix"/>
<feBlend mode="normal" in="SourceGraphic" in2="BackgroundImageFix" result="shape"/>
<feGaussianBlur stdDeviation="503.75" result="effect1_foregroundBlur_59_1001"/>
</filter>
<filter id="filter1_f_59_1001" x="-54.9032" y="-503.324" width="1315.14" height="1052.86" filterUnits="userSpaceOnUse" color-interpolation-filters="sRGB">
<feFlood flood-opacity="0" result="BackgroundImageFix"/>
<feBlend mode="normal" in="SourceGraphic" in2="BackgroundImageFix" result="shape"/>
<feGaussianBlur stdDeviation="162.7" result="effect1_foregroundBlur_59_1001"/>
</filter>
<clipPath id="clip0_59_1001">
<path d="M0 64C0 33.8301 0 18.7452 9.37258 9.37258C18.7452 0 33.8301 0 64 0H1376C1406.17 0 1421.25 0 1430.63 9.37258C1440 18.7452 1440 33.8301 1440 64V1180C1440 1210.17 1440 1225.25 1430.63 1234.63C1421.25 1244 1406.17 1244 1376 1244H64C33.8301 1244 18.7452 1244 9.37258 1234.63C0 1225.25 0 1210.17 0 1180V64Z" fill="white"/>
</clipPath>
</defs>
</svg>
