<svg width="1440" height="1024" viewBox="0 0 1440 1024" fill="none" xmlns="http://www.w3.org/2000/svg">
<g opacity="0.12" clip-path="url(#clip0_2018_5730)">
<rect width="1440" height="1024" fill="white" fill-opacity="0.5" style="fill:white;fill-opacity:0.5;"/>
<rect x="-0.00012207" y="676.134" width="1822.62" height="347.866" fill="white" fill-opacity="0.2" style="fill:white;fill-opacity:0.2;"/>
<path d="M144.634 844.919C142.36 840.137 139.068 836.453 134.756 833.866C130.445 831.2 125.428 829.868 119.705 829.868C113.982 829.868 108.808 831.2 104.183 833.866C99.6365 836.453 96.0305 840.215 93.3651 845.154C90.7782 850.014 89.4847 855.659 89.4847 862.087C89.4847 868.515 90.7782 874.159 93.3651 879.02C96.0305 883.88 99.6365 887.643 104.183 890.308C108.808 892.895 113.982 894.189 119.705 894.189C127.701 894.189 134.286 891.798 139.46 887.016C144.634 882.234 147.652 875.766 148.514 867.614H115.825V858.912H159.92V867.143C159.293 873.885 157.177 880.078 153.57 885.722C149.964 891.288 145.222 895.717 139.342 899.01C133.463 902.224 126.917 903.831 119.705 903.831C112.101 903.831 105.163 902.067 98.8918 898.539C92.6204 894.933 87.6425 889.955 83.9581 883.606C80.352 877.256 78.549 870.083 78.549 862.087C78.549 854.091 80.352 846.918 83.9581 840.568C87.6425 834.14 92.6204 829.162 98.8918 825.634C105.163 822.028 112.101 820.225 119.705 820.225C128.407 820.225 136.089 822.381 142.752 826.693C149.494 831.004 154.394 837.08 157.451 844.919H144.634ZM184.769 849.152C186.65 845.468 189.316 842.606 192.765 840.568C196.293 838.53 200.565 837.511 205.582 837.511V848.564H202.76C190.766 848.564 184.769 855.071 184.769 868.084V903.125H174.069V838.687H184.769V849.152ZM213.937 870.671C213.937 864.086 215.269 858.324 217.935 853.385C220.6 848.368 224.245 844.488 228.87 841.744C233.574 839 238.787 837.628 244.51 837.628C250.154 837.628 255.053 838.844 259.208 841.274C263.363 843.704 266.459 846.761 268.498 850.446V838.687H279.316V903.125H268.498V891.131C266.381 894.894 263.206 898.03 258.973 900.538C254.818 902.968 249.958 904.184 244.392 904.184C238.669 904.184 233.495 902.772 228.87 899.95C224.245 897.128 220.6 893.169 217.935 888.074C215.269 882.978 213.937 877.177 213.937 870.671ZM268.498 870.788C268.498 865.928 267.518 861.695 265.558 858.089C263.598 854.483 260.933 851.739 257.562 849.858C254.269 847.898 250.624 846.918 246.626 846.918C242.628 846.918 238.983 847.859 235.69 849.74C232.398 851.621 229.772 854.365 227.812 857.971C225.852 861.577 224.872 865.81 224.872 870.671C224.872 875.61 225.852 879.921 227.812 883.606C229.772 887.212 232.398 889.995 235.69 891.954C238.983 893.836 242.628 894.776 246.626 894.776C250.624 894.776 254.269 893.836 257.562 891.954C260.933 889.995 263.598 887.212 265.558 883.606C267.518 879.921 268.498 875.649 268.498 870.788ZM293.401 870.671C293.401 864.086 294.733 858.324 297.399 853.385C300.064 848.368 303.709 844.488 308.334 841.744C313.038 839 318.29 837.628 324.091 837.628C329.108 837.628 333.773 838.804 338.084 841.156C342.396 843.429 345.688 846.448 347.962 850.21V816.11H358.78V903.125H347.962V891.014C345.845 894.855 342.709 898.03 338.555 900.538C334.4 902.968 329.54 904.184 323.974 904.184C318.251 904.184 313.038 902.772 308.334 899.95C303.709 897.128 300.064 893.169 297.399 888.074C294.733 882.978 293.401 877.177 293.401 870.671ZM347.962 870.788C347.962 865.928 346.982 861.695 345.022 858.089C343.062 854.483 340.397 851.739 337.026 849.858C333.733 847.898 330.088 846.918 326.09 846.918C322.092 846.918 318.447 847.859 315.155 849.74C311.862 851.621 309.236 854.365 307.276 857.971C305.316 861.577 304.336 865.81 304.336 870.671C304.336 875.61 305.316 879.921 307.276 883.606C309.236 887.212 311.862 889.995 315.155 891.954C318.447 893.836 322.092 894.776 326.09 894.776C330.088 894.776 333.733 893.836 337.026 891.954C340.397 889.995 343.062 887.212 345.022 883.606C346.982 879.921 347.962 875.649 347.962 870.788ZM382.389 828.221C380.351 828.221 378.627 827.516 377.216 826.105C375.804 824.694 375.099 822.969 375.099 820.931C375.099 818.893 375.804 817.168 377.216 815.757C378.627 814.346 380.351 813.64 382.389 813.64C384.349 813.64 385.995 814.346 387.328 815.757C388.739 817.168 389.445 818.893 389.445 820.931C389.445 822.969 388.739 824.694 387.328 826.105C385.995 827.516 384.349 828.221 382.389 828.221ZM387.563 838.687V903.125H376.863V838.687H387.563ZM464.595 868.437C464.595 870.475 464.477 872.631 464.242 874.904H412.738C413.13 881.254 415.286 886.232 419.206 889.838C423.204 893.365 428.025 895.129 433.669 895.129C438.294 895.129 442.135 894.071 445.193 891.954C448.328 889.759 450.523 886.859 451.778 883.253H463.301C461.577 889.446 458.127 894.502 452.954 898.422C447.78 902.263 441.351 904.184 433.669 904.184C427.554 904.184 422.067 902.812 417.207 900.068C412.425 897.324 408.662 893.444 405.918 888.427C403.174 883.331 401.803 877.452 401.803 870.788C401.803 864.125 403.135 858.285 405.801 853.268C408.466 848.251 412.19 844.409 416.971 841.744C421.832 839 427.398 837.628 433.669 837.628C439.784 837.628 445.193 838.961 449.896 841.626C454.6 844.292 458.206 847.976 460.714 852.68C463.301 857.305 464.595 862.557 464.595 868.437ZM453.541 866.202C453.541 862.126 452.64 858.638 450.837 855.737C449.034 852.758 446.565 850.524 443.429 849.035C440.372 847.467 436.962 846.683 433.199 846.683C427.79 846.683 423.164 848.407 419.323 851.857C415.56 855.306 413.405 860.088 412.856 866.202H453.541ZM510.115 837.511C517.955 837.511 524.304 839.902 529.165 844.684C534.025 849.387 536.455 856.207 536.455 865.144V903.125H525.872V866.673C525.872 860.245 524.265 855.345 521.051 851.974C517.837 848.525 513.447 846.8 507.881 846.8C502.237 846.8 497.729 848.564 494.358 852.092C491.066 855.619 489.42 860.754 489.42 867.496V903.125H478.719V838.687H489.42V847.859C491.536 844.566 494.398 842.018 498.004 840.215C501.688 838.412 505.725 837.511 510.115 837.511ZM566.987 847.506V885.487C566.987 888.623 567.653 890.857 568.986 892.19C570.319 893.444 572.631 894.071 575.924 894.071H583.802V903.125H574.16C568.202 903.125 563.734 901.753 560.755 899.01C557.776 896.266 556.286 891.758 556.286 885.487V847.506H547.938V838.687H556.286V822.46H566.987V838.687H583.802V847.506H566.987ZM693.025 849.035L688.557 870.2H704.784V879.608H686.558L681.502 903.125H671.271L676.328 879.608H651.634L646.578 903.125H636.348L641.404 879.608H622.942V870.2H643.403L647.871 849.035H629.645V839.627H649.87L654.927 816.11H665.157L660.1 839.627H684.794L689.85 816.11H700.08L695.024 839.627H711.369V849.035H693.025ZM682.795 849.035H658.101L653.633 870.2H678.327L682.795 849.035ZM722.286 827.869V818.109H744.393V903.125H733.575V827.869H722.286Z" fill="white" style="fill:white;fill-opacity:1;"/>
<g filter="url(#filter0_f_2018_5730)">
<ellipse cx="1114.64" cy="-154.335" rx="923.56" ry="928.459" fill="#2E998C" style="fill:#2E998C;fill:color(display-p3 0.1800 0.6000 0.5496);fill-opacity:1;"/>
</g>
<g filter="url(#filter1_f_2018_5730)">
<circle cx="1731.98" cy="1183.23" r="997.053" fill="#0574F5" style="fill:#0574F5;fill:color(display-p3 0.0196 0.4549 0.9608);fill-opacity:1;"/>
</g>
<g filter="url(#filter2_f_2018_5730)">
<circle cx="235.177" cy="612.44" r="730.029" fill="#53766B" style="fill:#53766B;fill:color(display-p3 0.3255 0.4627 0.4196);fill-opacity:1;"/>
</g>
</g>
<defs>
<filter id="filter0_f_2018_5730" x="-347.866" y="-1621.74" width="2925.01" height="2934.81" filterUnits="userSpaceOnUse" color-interpolation-filters="sRGB">
<feFlood flood-opacity="0" result="BackgroundImageFix"/>
<feBlend mode="normal" in="SourceGraphic" in2="BackgroundImageFix" result="shape"/>
<feGaussianBlur stdDeviation="269.474" result="effect1_foregroundBlur_2018_5730"/>
</filter>
<filter id="filter1_f_2018_5730" x="195.981" y="-352.766" width="3072" height="3072" filterUnits="userSpaceOnUse" color-interpolation-filters="sRGB">
<feFlood flood-opacity="0" result="BackgroundImageFix"/>
<feBlend mode="normal" in="SourceGraphic" in2="BackgroundImageFix" result="shape"/>
<feGaussianBlur stdDeviation="269.474" result="effect1_foregroundBlur_2018_5730"/>
</filter>
<filter id="filter2_f_2018_5730" x="-1033.8" y="-656.536" width="2537.95" height="2537.95" filterUnits="userSpaceOnUse" color-interpolation-filters="sRGB">
<feFlood flood-opacity="0" result="BackgroundImageFix"/>
<feBlend mode="normal" in="SourceGraphic" in2="BackgroundImageFix" result="shape"/>
<feGaussianBlur stdDeviation="269.474" result="effect1_foregroundBlur_2018_5730"/>
</filter>
<clipPath id="clip0_2018_5730">
<rect width="1440" height="1024" fill="white" style="fill:white;fill-opacity:1;"/>
</clipPath>
</defs>
</svg>
